<svg width="33" height="34" viewBox="0 0 33 34" fill="none" xmlns="http://www.w3.org/2000/svg">
<path fill-rule="evenodd" clip-rule="evenodd" d="M4.08089e-07 2.84055C4.08089e-07 2.08719 0.290469 1.36469 0.807507 0.83198C1.32454 0.299275 2.0258 3.78685e-06 2.757 3.78685e-06H30.24C30.6024 -0.000605975 30.9613 0.0724283 31.2962 0.214925C31.6311 0.357422 31.9355 0.566582 32.1919 0.830432C32.4482 1.09428 32.6516 1.40764 32.7902 1.75256C32.9289 2.09749 33.0002 2.46721 33 2.84055V31.1564C33.0004 31.5298 32.9293 31.8996 32.7909 32.2447C32.6524 32.5898 32.4492 32.9034 32.193 33.1675C31.9368 33.4316 31.6326 33.6411 31.2977 33.7839C30.9628 33.9268 30.6039 34.0002 30.2415 34H2.757C2.39482 34 2.03619 33.9265 1.7016 33.7836C1.367 33.6408 1.06301 33.4314 0.806976 33.1675C0.550946 32.9035 0.347898 32.5902 0.209434 32.2454C0.0709699 31.9006 -0.000196643 31.5311 4.08089e-07 31.1579V2.84055ZM13.062 12.9633H17.5305V15.2753C18.1755 13.9462 19.8255 12.75 22.305 12.75C27.0585 12.75 28.185 15.3974 28.185 20.2547V29.2524H23.3745V21.3613C23.3745 18.5949 22.7295 17.034 21.0915 17.034C18.819 17.034 17.874 18.717 17.874 21.3613V29.2524H13.062V12.9633ZM4.812 29.0406H9.624V12.75H4.812V29.0391V29.0406ZM10.3125 7.43673C10.3216 7.86122 10.2483 8.28331 10.0969 8.67822C9.94546 9.07312 9.71903 9.43289 9.43085 9.73642C9.14267 10.0399 8.79855 10.2811 8.41868 10.4457C8.03882 10.6104 7.63086 10.6952 7.21875 10.6952C6.80664 10.6952 6.39868 10.6104 6.01882 10.4457C5.63895 10.2811 5.29483 10.0399 5.00665 9.73642C4.71847 9.43289 4.49204 9.07312 4.34064 8.67822C4.18924 8.28331 4.11593 7.86122 4.125 7.43673C4.14281 6.60351 4.47658 5.81059 5.05483 5.22779C5.63308 4.64499 6.40984 4.31865 7.21875 4.31865C8.02766 4.31865 8.80442 4.64499 9.38267 5.22779C9.96092 5.81059 10.2947 6.60351 10.3125 7.43673Z" fill="#CCD0D3"/>
</svg>
