<svg width="48" height="48" viewBox="0 0 48 48" fill="none" xmlns="http://www.w3.org/2000/svg">
<path d="M34.68 16.5226L35.64 10.4925L40.2 15.0754L35.4289 17.1691L34.68 16.5226ZM41.4 16.2814L46.2 21.1055C47.0341 21.987 47.9739 22.6606 48 23.5176L36.1279 18.4472L41.4 16.2814ZM47.76 25.0854C45.7862 27.5951 43.2581 29.8511 40.8 32.3216L33.4825 30.8009C33.4825 30.1979 33.1019 29.6574 32.6219 29.2956L33.96 20.8643C34.6341 20.9119 35.3704 20.3421 35.5416 19.8125L47.76 25.0854ZM39.48 33.6482L30.48 42.6935L32.04 33.1658C32.5044 33.0069 32.8603 32.7206 33.12 32.3216L39.48 33.6482ZM28.56 44.6231L27.6 45.5879L16.32 29.3065C16.5055 29.1567 16.6093 28.9932 16.68 28.8241L29.16 31.4774C29.2647 32.1228 30.0262 32.8415 30.5033 33.0452L28.56 44.6231ZM26.52 46.6734L24.96 48H22.8C18.8149 43.9525 9.84 34.9749 9.84 34.9749L12.8632 30.3498C13.6589 30.6528 14.5873 30.5956 15.2237 30.2222L26.52 46.6734ZM6.24 31.3568L11.28 29.0653L11.64 29.5477L8.53003 33.6306L6.24 31.3568ZM5.04 30.1508L0.6 25.5678L10.8872 27.7083L5.04 30.1508ZM0 23.8794C0.168563 22.6097 1.21463 21.7634 1.8 21.1055L6 16.8844L11.88 25.4472L11.2665 26.1919L0 23.8794ZM7.08 15.799L12.72 10.1307L19.92 13.2663C19.6186 14.3709 19.9354 15.3338 20.52 15.799L14.6656 24.7307C14.0737 24.5276 13.6789 24.6218 13.2937 24.7303L7.08 15.799ZM13.92 9.04523C13.92 9.04523 22.44 0.241206 23.04 0H24.72L28.44 3.25628L23.1906 11.4676C22.3468 11.284 21.2885 11.3454 20.6989 11.9113L13.92 9.04523ZM29.52 4.34171L34.32 9.16583L33.2137 16.5081C32.9505 16.5586 32.5922 16.7023 32.3847 16.9305L24.84 13.6933C24.9578 13.1709 24.8404 12.5959 24.48 12.3015L29.52 4.34171ZM31.56 18.1474L31.5555 18.8868L16.2 25.4472L16.08 25.3266L21.92 16.394C23.0673 16.5007 24.0513 15.9506 24.512 15.1509L31.56 18.1474ZM16.8 26.7739L32.16 20.1407L32.5256 20.5025L31.1917 28.8229C30.4211 28.9154 29.6673 29.3925 29.3284 30.0485L17.04 27.3769L16.8 26.7739Z" fill="#CCD0D3"/>
</svg>
