<svg width="48" height="48" viewBox="0 0 48 48" fill="none" xmlns="http://www.w3.org/2000/svg">
<path d="M35.6224 45.0006C35.4439 45.0951 35.4589 45.1251 35.6299 45.0381C35.6826 45.0166 35.7309 44.9856 35.7724 44.9466C35.7724 44.9151 35.7724 44.9151 35.6224 45.0006ZM35.9824 44.8056C35.8969 44.8761 35.8969 44.8761 35.9989 44.8296C36.0366 44.812 36.071 44.7881 36.1009 44.7591C36.1009 44.7186 36.0769 44.7276 35.9824 44.8056ZM36.2164 44.6646C36.1309 44.7351 36.1309 44.7351 36.2329 44.6886C36.2707 44.6706 36.3052 44.6463 36.3349 44.6166C36.3349 44.5791 36.3109 44.5866 36.2164 44.6646ZM36.4534 44.5251C36.3679 44.5956 36.3679 44.5956 36.4669 44.5476C36.5224 44.5176 36.5689 44.4861 36.5689 44.4771C36.5689 44.4396 36.5449 44.4471 36.4534 44.5251ZM36.7729 44.3136C36.6094 44.4231 36.5524 44.4936 36.7024 44.4156C36.8028 44.3541 36.9738 44.2191 36.9438 44.2191C36.8793 44.2431 36.8253 44.2836 36.7714 44.3136H36.7729ZM22.4288 0.0110247C22.3193 0.0185245 21.9908 0.0485235 21.7028 0.0725228C14.881 0.690503 8.49873 4.36239 4.45336 10.0187C2.21778 13.121 0.764614 16.7174 0.217493 20.5019C0.0239993 21.8218 0 22.2118 0 24.0013C0 25.7892 0.0239993 26.1732 0.217493 27.4932C1.52395 36.5094 7.93775 44.0781 16.6315 46.8831C18.1959 47.3825 19.8354 47.7275 21.7028 47.939C22.4288 48.017 25.5682 48.017 26.2942 47.939C29.5221 47.579 32.2475 46.7826 34.9444 45.4071C35.3584 45.1971 35.4364 45.1416 35.3809 45.0951C34.0653 43.356 32.7608 41.6086 31.4675 39.8528L27.6321 34.6734L22.8278 27.5562C21.2297 25.1731 19.6152 22.8012 17.9844 20.4404C17.9679 20.4404 17.9469 23.6038 17.9379 27.4617C17.9214 34.219 17.9214 34.4934 17.8359 34.6494C17.754 34.8379 17.6071 34.9906 17.422 35.0799C17.2735 35.1504 17.14 35.1654 16.4305 35.1654H15.619L15.4075 35.0334C15.2751 34.9484 15.1674 34.8299 15.0955 34.6899L14.9935 34.4784L15.001 25.0722L15.0175 15.666L15.166 15.4785C15.2609 15.3633 15.3776 15.2679 15.5095 15.1981C15.706 15.1036 15.784 15.0886 16.5955 15.0886C17.548 15.0886 17.7054 15.1261 17.9559 15.4005C19.9022 18.2953 21.8316 21.2012 23.7443 24.1183C26.8627 28.8461 31.1195 35.2974 33.212 38.4623L37.0173 44.2206L37.2048 44.0961C39.0337 42.8808 40.6909 41.4254 42.1322 39.7688C45.1554 36.3085 47.1172 32.0502 47.7825 27.5037C47.976 26.1837 48 25.7922 48 24.0043C48 22.2148 47.976 21.8323 47.7825 20.5124C46.4761 11.4962 40.0622 3.9274 31.3685 1.12099C29.7437 0.606388 28.0714 0.256144 26.3767 0.0755227C25.9222 0.0290241 22.8203 -0.0264741 22.4303 0.0140246L22.4288 0.0110247ZM32.249 14.5261C32.3606 14.5809 32.4601 14.6574 32.5418 14.7511C32.6234 14.8449 32.6855 14.954 32.7245 15.0721C32.765 15.1981 32.7725 17.8065 32.765 23.6818L32.7485 32.1175L31.265 29.8376L29.7726 27.5562V21.4319C29.7726 17.4615 29.7891 15.2355 29.8101 15.1261C29.8835 14.875 30.0519 14.6624 30.2796 14.5336C30.4655 14.4391 30.5375 14.4316 31.28 14.4316C31.9745 14.4316 32.0915 14.4391 32.2475 14.5261H32.249Z" fill="#CCD0D3"/>
</svg>
