<svg width="59" height="245" viewBox="0 0 59 245" fill="none" xmlns="http://www.w3.org/2000/svg">
<g clip-path="url(#clip0_211_5)">
<mask id="mask0_211_5" style="mask-type:alpha" maskUnits="userSpaceOnUse" x="-4" y="-60" width="68" height="366">
<path d="M0.0426565 237.551L-4 241.594L59.4712 305.065L63.5138 301.023L0.0426565 237.551Z" fill="#312F33"/>
<path d="M0.0426565 221.89L-4 225.933L59.4712 289.404L63.5138 285.361L0.0426565 221.89Z" fill="#312F33"/>
<path d="M0.0426565 206.23L-4 210.273L59.4712 273.744L63.5138 269.702L0.0426565 206.23Z" fill="#312F33"/>
<path d="M0.0426565 190.569L-4 194.612L59.4712 258.083L63.5138 254.041L0.0426565 190.569Z" fill="#312F33"/>
<path d="M0.0426565 174.908L-4 178.951L59.4712 242.422L63.5138 238.38L0.0426565 174.908Z" fill="#312F33"/>
<path d="M0.0426565 159.248L-4 163.291L59.4712 226.762L63.5138 222.72L0.0426565 159.248Z" fill="#312F33"/>
<path d="M0.0426565 143.587L-4 147.63L59.4712 211.101L63.5138 207.059L0.0426565 143.587Z" fill="#312F33"/>
<path d="M0.0426565 127.927L-4 131.97L59.4712 195.441L63.5138 191.398L0.0426565 127.927Z" fill="#312F33"/>
<path d="M0.0426565 112.266L-4 116.309L59.4712 179.78L63.5138 175.738L0.0426565 112.266Z" fill="#312F33"/>
<path d="M0.0426565 96.6063L-4 100.649L59.4712 164.12L63.5138 160.078L0.0426565 96.6063Z" fill="#312F33"/>
<path d="M0.0426565 80.9454L-4 84.988L59.4712 148.459L63.5138 144.417L0.0426565 80.9454Z" fill="#312F33"/>
<path d="M0.0426565 65.2853L-4 69.328L59.4712 132.799L63.5138 128.757L0.0426565 65.2853Z" fill="#312F33"/>
<path d="M0.0426565 49.6243L-4 53.667L59.4712 117.138L63.5138 113.096L0.0426565 49.6243Z" fill="#312F33"/>
<path d="M0.0426565 33.9636L-4 38.0062L59.4712 101.477L63.5138 97.4347L0.0426565 33.9636Z" fill="#312F33"/>
<path d="M0.0426565 18.3029L-4 22.3456L59.4712 85.8168L63.5138 81.7741L0.0426565 18.3029Z" fill="#312F33"/>
<path d="M0.0426565 2.64222L-4 6.68488L59.4712 70.1561L63.5138 66.1134L0.0426565 2.64222Z" fill="#312F33"/>
<path d="M0.0426565 -13.0182L-4 -8.97559L59.4712 54.4956L63.5138 50.4529L0.0426565 -13.0182Z" fill="#312F33"/>
<path d="M0.0426565 -28.6789L-4 -24.6362L59.4712 38.8349L63.5138 34.7923L0.0426565 -28.6789Z" fill="#312F33"/>
<path d="M0.0426565 -44.3395L-4 -40.2969L59.4712 23.1743L63.5138 19.1316L0.0426565 -44.3395Z" fill="#312F33"/>
<path d="M0.0426565 -59.9999L-4 -55.9573L59.4712 7.5139L63.5138 3.47125L0.0426565 -59.9999Z" fill="#312F33"/>
</mask>
<g mask="url(#mask0_211_5)">
<path d="M59.4549 245.74V-0.587769H0.144531V245.74H59.4549Z" fill="#312F33"/>
</g>
</g>
<defs>
<clipPath id="clip0_211_5">
<rect width="59" height="245" fill="white"/>
</clipPath>
</defs>
</svg>
