<svg width="34" height="34" viewBox="0 0 34 34" fill="none" xmlns="http://www.w3.org/2000/svg">
<path d="M17 0.5C7.6075 0.5 0 8.07051 0 17.4173C0 24.9033 4.86625 31.2261 11.6237 33.4677C12.4737 33.6157 12.7925 33.1082 12.7925 32.6641C12.7925 32.2623 12.7713 30.9301 12.7713 29.5133C8.5 30.2957 7.395 28.4771 7.055 27.5255C6.86375 27.0391 6.035 25.5377 5.3125 25.1359C4.7175 24.8187 3.8675 24.0363 5.29125 24.0151C6.63 23.994 7.58625 25.2416 7.905 25.7491C9.435 28.3079 11.8788 27.5889 12.8563 27.1448C13.005 26.0452 13.4513 25.3051 13.94 24.8821C10.1575 24.4592 6.205 23.0001 6.205 16.5292C6.205 14.6894 6.86375 13.1669 7.9475 11.9826C7.7775 11.5597 7.1825 9.82569 8.1175 7.49955C8.1175 7.49955 9.54125 7.05547 12.7925 9.23358C14.1525 8.85294 15.5975 8.66262 17.0425 8.66262C18.4875 8.66262 19.9325 8.85294 21.2925 9.23358C24.5438 7.03433 25.9675 7.49955 25.9675 7.49955C26.9025 9.82569 26.3075 11.5597 26.1375 11.9826C27.2213 13.1669 27.88 14.6683 27.88 16.5292C27.88 23.0212 23.9062 24.4592 20.1238 24.8821C20.74 25.4108 21.2712 26.4258 21.2712 28.0118C21.2712 30.2745 21.25 32.0931 21.25 32.6641C21.25 33.1082 21.5688 33.6369 22.4188 33.4677C25.7937 32.3342 28.7265 30.1759 30.8041 27.2966C32.8816 24.4173 33.9994 20.962 34 17.4173C34 8.07051 26.3925 0.5 17 0.5Z" fill="#CCD0D3"/>
</svg>
