<svg width="47" height="72" viewBox="0 0 47 72" fill="none" xmlns="http://www.w3.org/2000/svg">
<path d="M23.5 13.5C24.1233 13.5 24.721 13.7371 25.1617 14.159C25.6024 14.581 25.85 15.1533 25.85 15.75V24.75C25.85 25.3467 25.6024 25.919 25.1617 26.341C24.721 26.7629 24.1233 27 23.5 27C22.8767 27 22.279 26.7629 21.8383 26.341C21.3976 25.919 21.15 25.3467 21.15 24.75V15.75C21.15 15.1533 21.3976 14.581 21.8383 14.159C22.279 13.7371 22.8767 13.5 23.5 13.5ZM42.3 49.5C42.3 54.2739 40.3193 58.8523 36.7936 62.2279C33.2679 65.6036 28.4861 67.5 23.5 67.5C18.5139 67.5 13.7321 65.6036 10.2064 62.2279C6.68071 58.8523 4.7 54.2739 4.7 49.5V22.5C4.7 17.7261 6.68071 13.1477 10.2064 9.77208C13.7321 6.39642 18.5139 4.5 23.5 4.5C28.4861 4.5 33.2679 6.39642 36.7936 9.77208C40.3193 13.1477 42.3 17.7261 42.3 22.5V49.5ZM23.5 0C17.2674 0 11.2901 2.37053 6.88299 6.5901C2.47589 10.8097 0 16.5326 0 22.5V49.5C0 55.4674 2.47589 61.1903 6.88299 65.4099C11.2901 69.6295 17.2674 72 23.5 72C29.7326 72 35.7099 69.6295 40.117 65.4099C44.5241 61.1903 47 55.4674 47 49.5V22.5C47 16.5326 44.5241 10.8097 40.117 6.5901C35.7099 2.37053 29.7326 0 23.5 0Z" fill="#C0BFBC"/>
</svg>
